<svg width="390" height="673" viewBox="0 0 390 673" fill="none" xmlns="http://www.w3.org/2000/svg">
<path d="M91.6608 513.409C97.5603 511.319 103.604 509.663 109.745 508.454L110.488 511.179C110.571 511.5 110.767 511.781 111.04 511.969C111.313 512.158 111.645 512.241 111.975 512.205L136.288 509.374C142.976 494.121 155.257 471.011 155.434 470.657C155.257 464.889 155.434 460.04 155.434 454.519C141.525 459.686 115.797 469.489 102.349 475.753C102.045 475.95 101.809 476.236 101.676 476.572C101.543 476.908 101.518 477.278 101.605 477.629C101.605 477.629 101.853 478.514 102.172 479.788C95.5891 479.788 75.8768 478.832 71.1345 483.327C70.3972 484.354 70.0349 485.604 70.1082 486.866C69.8251 491.75 72.267 529.688 76.1599 540.836C78.1771 546.675 82.424 546.038 85.326 540.447C88.6847 532.026 90.8411 523.174 91.7316 514.152C91.7316 513.692 91.6254 513.727 91.6608 513.409ZM87.5909 481.734C91.9085 481.38 93.2533 481.451 102.526 481.168C104.189 487.468 107.622 500.42 109.391 507.038C103.147 508.006 96.9841 509.437 90.953 511.321C89.0737 501.56 87.9496 491.668 87.5909 481.734Z" fill="#FEFFDF"/>
<path d="M417.392 172C418.277 170.761 417.144 169.169 416.189 167.93C418.895 165.146 421.897 162.666 425.142 160.533C430.618 157.805 435.623 154.221 439.971 149.916C441.776 148.041 445.173 144.183 443.899 141.918C442.625 139.653 440.36 139.512 437.281 140.821C438.615 139.421 439.704 137.805 440.502 136.043C441.493 133.283 439.157 131.053 434.096 133.106C435.936 130.169 436.361 127.09 433.247 125.603C430.734 124.4 427.053 127.267 424.93 129.142C420.76 132.786 416.846 136.711 413.216 140.892C410.986 136.22 407.447 130.841 403.024 132.54C398.6 134.239 402.033 141.847 404.298 145.988L396.264 151.544C395.05 150.889 393.678 150.583 392.3 150.66C383.17 152.217 341.232 184.139 336.986 184.139C333.73 184.139 287.227 161.843 247.024 155.402C246.946 155.161 246.802 154.946 246.608 154.784C246.414 154.621 246.178 154.516 245.927 154.482C238.914 153.285 231.805 152.752 224.693 152.889C224.477 152.904 224.267 152.965 224.078 153.069C223.888 153.173 223.724 153.317 223.595 153.491H220.623C219.915 150.624 217.296 144.006 216.376 141.458C218.782 139.37 222.109 138.308 223.843 134.946C227.028 128.718 226.887 117.888 226.002 110.952C230.001 107.908 230.107 103.024 229.187 98.0344C228.833 96.0172 227.736 91.4519 226.037 90.3194C225.082 89.6823 223.065 90.3194 221.331 90.9564C219.596 86.9219 219.596 88.7622 220.304 87.1343C220.633 86.384 220.825 85.5809 220.87 84.7631C222.746 85.3294 226.639 81.578 225.294 76.6234C224.59 74.8497 223.725 73.144 222.711 71.5272C223.206 70.3239 224.268 68.8729 220.941 64.4492C219.508 62.9037 217.648 61.8196 215.597 61.3348H213.969C212.795 59.63 211.071 58.3805 209.085 57.7958C206.088 57.0315 202.91 57.4764 200.238 59.0345C199.53 59.5653 198.964 60.2731 198.256 60.7686C196.656 59.7969 194.82 59.2831 192.948 59.2831C191.075 59.2831 189.239 59.7969 187.639 60.7686C186.702 61.1362 185.849 61.6893 185.132 62.3948C184.414 63.1003 183.847 63.9435 183.463 64.8739C181.729 64.2756 179.889 64.0452 178.061 64.1976C176.233 64.3499 174.457 64.8816 172.846 65.7586C166.732 69.0738 162.159 74.6504 160.106 81.2949C160.048 82.2968 160.048 83.3011 160.106 84.303H159.716C154.408 83.5245 147.648 96.1234 153.063 105.926C153.7 107.094 154.514 108.191 155.292 109.465C157.557 113.004 156.673 114.066 161.733 118.384C163.22 119.658 163.468 119.552 164.388 120.33C165.308 121.109 164.954 120.72 165.485 122.701C165.774 123.869 166.292 124.967 167.009 125.933C167.726 126.899 168.627 127.713 169.661 128.328C170.037 131.79 171.513 135.04 173.872 137.601C174.62 138.437 175.491 139.153 176.456 139.724C176.716 139.871 177.007 139.955 177.305 139.972C178.367 146.554 179.676 155.119 180.243 158.764L177.093 160.463C172.972 162.121 168.964 164.048 165.096 166.231C164.792 166.441 164.578 166.757 164.494 167.116C160.743 169.098 157.204 170.974 155.186 172.177C127.087 188.846 47.2817 298.732 46.4678 303.757C46.378 304.045 46.378 304.354 46.4678 304.642C47.6116 306.467 49.0054 308.123 50.6084 309.561C50.1144 310.463 49.5209 311.305 48.8389 312.074C41.7609 316.71 31.1438 323.611 25.446 329.769C25.0464 330.125 24.7466 330.58 24.5762 331.087C24.4057 331.595 24.3706 332.138 24.4742 332.663C24.5779 333.189 24.8166 333.678 25.167 334.082C25.5174 334.487 25.9673 334.794 26.4723 334.971C27.534 335.325 27.711 335.219 34.6121 331.432C32.7154 333.096 31.1643 335.116 30.0467 337.378C29.5867 339.324 31.3562 340.457 33.5857 340.103C34.8402 339.774 36.0347 339.249 37.1248 338.546C36.4864 339.531 36.1468 340.681 36.1468 341.855C36.1468 343.029 36.4864 344.178 37.1248 345.164C40.6638 349.623 49.936 335.573 54.8198 332.105C56.8017 334.618 59.4913 340.492 63.7735 338.935C67.4895 337.555 63.4196 329.38 63.7735 327.009C65.2135 325.626 66.7511 324.349 68.3743 323.187C71.1043 325.211 74.2258 326.645 77.5403 327.398C83.3797 327.398 144.322 265.89 148.958 260.971C147.294 276.613 138.907 343.748 140.676 356.807C141.49 362.717 155.682 363.567 161.663 363.885C159.858 406.353 158.655 470.693 158.336 471.365C148.958 491.573 146.41 497.094 143.26 503.216C137.527 514.187 113.391 554.674 110.665 563.875C110.276 565.326 110.241 565.892 111.763 568.582C107.202 573.376 102.969 578.472 99.0929 583.835C97.1465 587.374 105.499 620.358 111.409 632.036C112.754 634.655 114.948 638.69 117.885 638.584C126.733 638.265 126.697 606.485 126.449 597.602C126.448 597.328 126.347 597.064 126.166 596.859C127.77 594.465 129.519 592.172 131.404 589.993C132.529 590.767 133.712 591.454 134.943 592.046C136.146 592.576 137.491 591.656 138.482 590.842C150.267 581.57 213.828 502.367 227.453 464.995C233.646 447.937 241.892 424.367 244.228 407.663C245.656 397.101 245.787 386.405 244.617 375.812C244.617 375.662 244.677 375.518 244.783 375.411C244.889 375.305 245.033 375.245 245.183 375.245C245.334 375.245 245.478 375.305 245.584 375.411C245.69 375.518 245.75 375.662 245.75 375.812C247.522 386.465 247.867 397.307 246.776 408.052C244.157 431.233 225.86 479.54 216.093 497.306C224.516 495.749 241.644 492.352 249.926 489.874C277.53 481.487 303.011 456.466 305.241 428.366C305.962 415.128 305.962 401.861 305.241 388.623C305.002 370.348 302.626 352.164 298.163 334.441C305.665 330.371 312.531 325.593 314.76 321.205C319.538 311.826 306.904 257.856 304.143 242.709C319.255 244.373 344.984 247.381 356.981 238.002C370.712 226.961 400.369 195.888 417.392 172ZM124.538 595.655C118.168 591.798 109.25 582.632 107.905 575.448C109.356 573.607 110.878 571.909 112.293 569.997C117.09 577.316 123.07 583.787 129.989 589.144C128.045 591.205 126.225 593.379 124.538 595.655ZM405.89 146.979C406.073 146.862 406.204 146.68 406.257 146.469C406.31 146.258 406.28 146.036 406.173 145.847C404.935 143.546 401.219 135.442 403.802 134.522C405.289 133.955 406.598 134.876 407.695 136.114C409.37 138.24 410.674 140.633 411.553 143.192C411.618 143.4 411.739 143.587 411.902 143.731C412.066 143.876 412.265 143.974 412.48 144.014C412.694 144.054 412.916 144.035 413.12 143.958C413.324 143.882 413.504 143.752 413.641 143.582C417.18 139.653 425.461 130.7 430.132 128.293C433.671 126.453 434.521 129.85 425.85 137.778C423.859 139.296 421.945 140.914 420.117 142.626C420.016 142.765 419.962 142.932 419.962 143.104C419.962 143.275 420.016 143.443 420.117 143.582C420.117 144.502 420.86 145.528 422.134 144.572C425.211 141.872 428.462 139.378 431.866 137.105C433.604 135.871 435.624 135.092 437.741 134.84C436.68 138.096 426.806 146.944 425.956 147.935C425.687 148.176 425.523 148.514 425.5 148.875C425.477 149.236 425.597 149.591 425.834 149.865C426.07 150.138 426.405 150.308 426.765 150.338C427.126 150.367 427.483 150.254 427.761 150.023C431.69 147.474 438.555 141.529 440.926 142.414C443.298 143.298 436.255 149.881 434.485 151.438C424.328 160.25 426.947 154.588 415.198 166.55C410.083 160.947 404.211 156.087 397.75 152.111L405.89 146.979ZM252.12 316.25C251.518 311.366 250.775 306.093 249.855 300.608L251.377 298.59C258.455 289.495 260.578 275.021 259.906 263.66C263.693 280.258 266.701 296.573 269.001 312.782L252.12 316.25ZM199.495 195.074C190.187 187.996 175.217 175.787 166.511 167.435L180.667 160.356C193.666 172.498 204.793 186.5 213.686 201.905C227.284 226.884 237.37 253.62 243.662 281.355L193.195 209.973L199.778 196.313C199.865 196.103 199.885 195.87 199.834 195.648C199.783 195.426 199.665 195.226 199.495 195.074ZM223.419 154.942C223.631 155.331 226.073 160.533 229.789 169.629C229.789 170.018 229.116 178.866 228.798 181.98C224.281 180.189 220.021 177.809 216.128 174.902C216.907 171.823 220.41 157.844 220.658 154.694L223.419 154.942ZM210.855 192.951C211.103 192.314 211.35 191.464 211.634 190.473L214.005 191.712C215.35 192.597 214.819 189.907 216.022 197.693C216.022 199.003 216.376 200.454 216.447 202.046C214.819 199.109 212.801 195.959 210.89 192.951H210.855ZM208.873 189.978C202.187 180.495 194.576 171.698 186.153 163.719L212.801 175.291C211.775 177.733 210.289 185.2 208.909 189.978H208.873ZM236.088 210.717C232.549 201.055 229.824 190.261 228.479 187.43C228.559 186.547 228.559 185.659 228.479 184.776C228.991 184.966 229.527 185.085 230.072 185.13C230.413 185.133 230.745 185.014 231.005 184.793C231.265 184.572 231.436 184.264 231.487 183.926C231.771 182.758 232.231 176.848 232.301 175.539C242.596 201.531 251.191 228.165 258.03 255.273C238.035 212.734 241.114 225.05 236.124 210.717H236.088ZM265.356 278.276C257.287 239.595 243.095 191.358 226.958 155.614C232.884 155.618 238.801 156.091 244.653 157.03C247.661 183.926 245.148 183.006 247.165 184.068C249.183 185.13 261.321 190.013 263.126 190.757C262.949 193.482 265.497 271.411 265.391 278.276H265.356ZM224.622 92.5843C226.467 96.6105 227.118 101.081 226.497 105.466C226.209 106.582 225.617 107.597 224.787 108.396C223.957 109.196 222.921 109.749 221.795 109.995C220.668 110.241 219.496 110.169 218.408 109.788C217.32 109.407 216.36 108.732 215.633 107.837C213.944 104.28 212.673 100.539 211.846 96.6896C212.801 95.4509 222.994 92.9736 224.622 92.5843ZM175.925 127.974C174.632 127.386 173.309 126.866 171.961 126.417C171.057 126.046 170.249 125.472 169.601 124.739C168.952 124.007 168.48 123.136 168.221 122.193C167.961 121.25 167.921 120.26 168.103 119.299C168.285 118.339 168.685 117.432 169.272 116.65C171.501 114.774 173.518 114.88 175.359 117.676C176.527 119.835 176.491 120.012 177.022 120.224C177.174 120.291 177.339 120.325 177.506 120.323C177.672 120.321 177.836 120.284 177.987 120.214C178.138 120.143 178.272 120.041 178.38 119.915C178.488 119.789 178.568 119.641 178.615 119.481C179.139 117.266 179.223 114.969 178.862 112.721C178.438 110.279 178.367 99.45 178.438 99.0961C179.471 99.641 180.633 99.8977 181.8 99.8393C188.205 99.5916 189.479 96.3003 192.027 93.6107C194.965 93.8938 195.566 95.3094 198.893 93.6107C200.451 92.7246 201.88 91.6291 203.14 90.3548C204.157 90.7712 205.139 91.2682 206.077 91.8411C208.198 92.8611 210.59 93.1744 212.903 92.7349C215.215 92.2954 217.325 91.1263 218.924 89.3992C219.313 90.1424 219.667 90.8856 219.986 91.6642C216.734 92.6733 213.672 94.2161 210.926 96.2295C210.324 96.9727 211.209 101.007 211.421 101.963C208.457 102.336 205.588 103.26 202.963 104.688C202.432 102.847 201.264 99.4146 199.424 98.4591C198.87 98.2897 198.279 98.2897 197.725 98.4591C194.54 98.9546 183.109 102.387 181.729 104.263C180.526 105.573 183.958 115.694 185.02 117.357C189.09 123.657 201.017 121.817 203.246 114.455C203.798 111.985 203.798 109.423 203.246 106.953C204.272 106.953 207.351 105.856 207.705 105.749C210.147 111.235 210.855 111.553 213.686 117.464C213.297 117.782 212.66 118.313 212.129 118.667C209.616 120.33 209.085 120.047 209.227 120.755C209.268 120.895 209.359 121.016 209.483 121.094C209.607 121.172 209.755 121.203 209.899 121.18C211.385 120.967 212.836 120.563 214.217 119.976C215.044 119.668 215.725 119.062 216.128 118.278C217.119 116.048 211.634 107.661 209.475 105.148C209.899 105.148 210.89 104.44 211.634 104.051C212.625 108.014 213.297 111.129 217.119 112.686C218.224 113.103 219.401 113.293 220.581 113.244C221.76 113.196 222.918 112.909 223.985 112.403C224.551 118.631 224.445 128.753 221.472 134.274C219.95 137.141 216.199 138.238 213.792 140.609C213.085 141.281 213.545 142.237 213.792 143.263C217.721 154.199 217.791 154.163 217.579 155.579C216.538 161.454 215.083 167.249 213.226 172.92C212.341 172.531 202.397 167.258 182.932 159.684C182.331 155.685 179.11 134.345 178.084 130.416C178.155 129.036 177.978 128.718 175.925 127.798V127.974ZM200.698 113.535C199.566 117.393 194.222 119.056 190.4 117.994C186.577 116.933 186.33 114.986 184.525 110.386C183.679 108.628 183.095 106.756 182.791 104.829C183.958 103.555 196.734 100.936 198.327 100.689C200.561 104.51 201.399 108.988 200.698 113.358V113.535ZM62.2164 326.018C60.8716 327.327 62.6764 331.609 62.9596 335.325C62.9596 335.644 62.9596 337.024 62.7472 337.13C60.8008 337.767 58.9959 334.83 57.8988 333.06C56.8017 331.291 55.7046 328.884 53.9705 329.521C50.4314 331.185 42.2209 342.085 39.0004 343.217C37.3725 340.103 46.6801 331.22 46.9986 330.725C47.1352 330.497 47.2067 330.237 47.2055 329.971C47.2042 329.706 47.1303 329.446 46.9916 329.22C46.853 328.994 46.6549 328.81 46.419 328.688C46.1832 328.567 45.9185 328.512 45.6538 328.53C45.0168 328.53 44.5921 329.097 43.6012 329.981C40.5871 332.923 37.1373 335.382 33.3734 337.272C36.786 333.357 40.4382 329.657 44.309 326.195C44.5001 325.998 44.6346 325.754 44.6983 325.487C44.6983 325.487 43.9551 323.611 42.5041 324.354C40.4514 325.487 30.4714 331.256 27.3217 332.742C26.897 332.459 27.1447 332.034 27.3217 331.609C32.3117 325.487 43.2826 318.055 50.0068 313.348C50.796 312.535 51.4528 311.604 51.9532 310.588C56.6101 314.921 61.578 318.907 66.8171 322.514C65.2031 323.572 63.6657 324.743 62.2164 326.018ZM144.569 358.187C143.791 357.692 143.224 357.232 143.118 356.595C141.172 342.156 152.001 260.334 151.824 257.113C151.824 256.924 151.787 256.737 151.713 256.563C151.64 256.389 151.532 256.231 151.397 256.099C151.262 255.968 151.102 255.864 150.926 255.795C150.75 255.726 150.562 255.693 150.373 255.698C148.568 255.698 151.753 255.698 106.666 298.874C103.694 301.669 80.9732 323.399 77.1864 324.85C71.9841 324.461 52.4133 308.854 49.2282 303.934C55.3861 291.477 130.059 188.987 155.894 173.309C157.876 172.106 161.273 170.23 164.989 168.248C166.274 169.46 167.659 170.561 169.13 171.54C177.341 179.326 188.772 189.023 197.442 196.313L190.683 209.726C190.58 209.903 190.526 210.105 190.526 210.31C190.526 210.515 190.58 210.716 190.683 210.894C245.573 289.637 244.759 288.752 245.113 288.752C248.631 306.948 250.82 325.376 251.66 343.89C251.66 348.88 251.66 348.455 251.872 348.101C252.085 347.747 251.872 348.349 251.872 348.349C243.308 357.692 158.548 366.398 144.569 358.187ZM340.206 240.94C324.174 243.169 306.055 239.843 302.551 239.701C300.604 230.267 296.724 221.338 291.155 213.477C291.07 213.363 290.945 213.284 290.805 213.258C290.665 213.232 290.52 213.259 290.399 213.335C290.278 213.411 290.191 213.53 290.154 213.668C290.117 213.806 290.133 213.953 290.2 214.079C292.252 218.255 299.118 236.268 300.817 240.657C300.286 242.355 316.813 310.694 312.142 319.895C307.966 328.212 283.653 338.687 274.876 341.696C273.14 321.994 270.305 302.404 266.382 283.019C267.585 272.826 266.028 212.238 265.568 189.836C265.555 189.576 265.468 189.325 265.317 189.112C265.167 188.899 264.96 188.733 264.719 188.633L248.829 181.944C248.756 173.534 248.225 165.134 247.236 156.782C286.908 163.648 333.128 186.333 336.986 186.368C342.577 186.368 384.125 154.517 392.725 153.243C396.547 152.641 412.968 166.974 414.879 170.938C398.104 194.366 368.624 225.156 354.964 235.808C350.563 238.751 345.483 240.517 340.206 240.94Z" fill="#FEFFDF"/>
<path d="M197.053 106.457C197.009 106.225 196.919 106.003 196.789 105.806C196.66 105.608 196.492 105.438 196.297 105.305C196.101 105.171 195.881 105.078 195.65 105.03C195.418 104.982 195.179 104.98 194.947 105.024C194.715 105.068 194.493 105.158 194.295 105.287C194.098 105.417 193.927 105.584 193.794 105.78C193.661 105.976 193.568 106.195 193.52 106.427C193.472 106.659 193.47 106.897 193.514 107.13C194.222 110.669 194.363 111.483 195.92 111.483C196.215 111.484 196.505 111.411 196.764 111.272C197.023 111.133 197.244 110.931 197.405 110.685C197.567 110.439 197.665 110.157 197.69 109.863C197.715 109.57 197.666 109.275 197.548 109.005C197.442 108.439 197.124 106.776 197.053 106.457ZM207.882 129.886C210.182 130.558 212.377 129.461 212.306 128.895C212.235 128.328 212.306 128.612 209.192 127.444C207.104 126.665 204.803 123.905 203.989 124.329C203.175 124.754 204.414 127.019 204.697 127.444C205.454 128.592 206.576 129.453 207.882 129.886ZM272.611 96.2649C267.975 115.694 264.577 132.186 264.011 135.477C263.635 136.909 263.563 138.404 263.799 139.866C265.674 143.865 289.917 151.757 292.995 150.2C296.074 148.642 304.073 130.629 313.38 112.049C319.082 112.231 324.787 111.816 330.403 110.81C336.316 109.726 342.07 107.907 347.532 105.396C359.494 99.8747 372.588 76.2341 374.357 64.343C375.684 51.4328 372.95 38.4303 366.536 27.1479C336.844 -24.3447 249.749 3.36576 256.827 60.5562C258.848 73.6425 264.293 85.9617 272.611 96.2649ZM294.199 138.415C294.199 138.981 293.562 138.91 290.66 138.415C284.724 137.669 278.977 135.833 273.708 133C271.23 131.655 270.558 131.372 270.806 130.77C271.054 130.169 271.584 130.381 275.407 131.443C275.76 131.443 286.731 134.982 289.881 136.079C293.951 137.919 294.199 137.919 294.199 138.415ZM293.562 80.8348C297.341 81.0308 301.107 80.2508 304.497 78.5698C307.648 80.0965 311.057 81.0207 314.548 81.2949C308.603 92.372 296.534 114.951 292.642 126.984L277.636 122.843C281.175 114.137 288.996 93.7522 293.491 80.8348H293.562ZM292.323 77.8974C289.681 77.4983 287.243 76.2436 285.383 74.3259C283.523 72.4081 282.343 69.9331 282.024 67.2804C281.034 60.2023 285.564 52.2749 292.394 54.1506C296.676 55.3185 297.207 58.716 296.464 62.9982C295.827 66.1125 293.526 73.9337 292.252 77.7559L292.323 77.8974ZM301.949 69.4038C302.327 67.088 303.196 64.8798 304.497 62.9274C305.116 61.863 306.022 60.9937 307.11 60.4182C308.199 59.8426 309.427 59.5839 310.655 59.6715C313.274 60.4501 314.406 65.4047 312.248 68.519C310.173 71.2723 307.59 73.6029 304.639 75.3847C303.623 74.7887 302.814 73.8962 302.321 72.827C301.828 71.7579 301.673 70.5633 301.878 69.4038H301.949ZM269.426 24.4229C285.28 5.34761 315.114 -2.22588 336.667 5.63073C348.375 9.64978 358.223 17.7875 364.377 28.5282C370.479 39.264 373.089 51.6325 371.845 63.9183C370.217 74.9246 357.689 97.7867 346.682 102.847C336.619 107.438 325.64 109.665 314.583 109.359C313.38 109.359 312.106 109.359 311.646 110.209C309.558 114.455 305.736 122.666 301.985 130.381C299.394 129.13 296.708 128.089 293.951 127.267C298.056 115.517 311.009 92.4428 317.167 81.2595C322.502 81.7166 327.866 80.7902 332.739 78.5698C334.055 77.8768 335.147 76.8226 335.885 75.531C336.624 74.2394 336.979 72.7639 336.908 71.2778C336.837 69.7916 336.344 68.3564 335.487 67.1406C334.629 65.9248 333.443 64.9789 332.066 64.4138C326.581 61.7241 321.661 68.1651 318.795 73.5798C318.016 74.9954 317.132 76.6588 316.141 78.5344C313.278 78.3463 310.456 77.7628 307.753 76.8003C310.445 74.9089 312.831 72.6175 314.831 70.0054C315.952 68.3133 316.519 66.3152 316.456 64.2867C316.393 62.2582 315.701 60.2994 314.477 58.6806C313.516 57.564 312.18 56.8365 310.721 56.6346C309.261 56.4326 307.778 56.77 306.55 57.5835C304.071 59.1064 302.085 61.3123 300.83 63.9364C299.574 66.5604 299.103 69.4911 299.472 72.3766C299.857 74.0053 300.734 75.4759 301.985 76.588C299.663 77.5494 297.171 78.031 294.659 78.0036C296.074 73.8276 298.375 66.2894 298.976 63.2105C299.354 61.4551 299.437 59.6493 299.224 57.8666C298.95 56.3362 298.24 54.9174 297.179 53.781C296.118 52.6446 294.751 51.839 293.243 51.461C284.643 49.0191 278.309 58.539 279.547 67.4219C279.897 70.6052 281.263 73.5911 283.443 75.9369C285.624 78.2828 288.501 79.8637 291.651 80.4455C287.121 93.186 280.043 113.748 276.504 122.524L268.718 120.507C273.708 95.4509 274.309 96.0526 273.602 95.7341C265.56 85.4816 260.415 73.2605 258.702 60.3439C257.868 53.9392 258.392 47.4306 260.239 41.2417C262.087 35.0528 265.217 29.3222 269.426 24.4229ZM318.547 78.7468C321.024 74.2522 325.979 64.4138 330.792 66.8203C331.755 67.2082 332.593 67.8516 333.217 68.6811C333.841 69.5106 334.226 70.4947 334.331 71.5272C334.26 77.7559 324.563 78.853 318.406 78.7468H318.547ZM454.021 94.3538C458.286 91.8457 463.323 90.9894 468.177 91.9473C473.509 92.0427 478.602 94.1747 482.412 97.9058C486.222 101.637 488.461 106.685 488.668 112.014C485.461 110.153 481.712 109.453 478.05 110.032C469.168 110.81 457.56 115.623 459.117 124.188C460.391 131.266 469.734 130.31 476.812 128.399C483.89 126.488 489.517 123.02 490.968 116.19C499.568 122.454 501.585 133.425 501.939 144.148C501.939 144.298 501.998 144.442 502.105 144.548C502.211 144.654 502.355 144.714 502.505 144.714C502.655 144.714 502.799 144.654 502.906 144.548C503.012 144.442 503.071 144.298 503.071 144.148C503.319 132.151 501.16 120.401 491.357 113.571C491.458 110.498 490.934 107.437 489.818 104.573C488.701 101.708 487.015 99.1003 484.861 96.9067C482.707 94.7131 480.13 92.9794 477.287 91.8106C474.443 90.6418 471.392 90.0623 468.318 90.107C463.405 89.3896 458.396 90.4164 454.162 93.009C452.853 93.646 453.454 94.6016 454.021 94.3538ZM486.296 119.729C482.297 124.966 470.972 127.691 465.735 126.807C463.788 126.488 462.196 125.674 461.771 123.657C460.497 116.579 472.707 112.721 479.997 112.474C482.966 112.246 485.927 113.005 488.42 114.632C488.152 116.483 487.422 118.236 486.296 119.729ZM437.812 52.9828C441.599 48.3113 439.051 40.1715 428.469 40.1361C424.364 40.1361 422.382 44.3122 422.665 48.3113C423.302 57.8312 434.025 57.5481 437.812 52.9828ZM425.142 48.1343C425.142 45.7985 426.239 42.755 428.681 42.7904C434.379 42.7904 436.998 45.4447 436.998 48.382C436.856 55.0708 424.682 58.539 425.142 48.1343ZM423.691 449.352C392.583 436.931 378.144 497.058 352.734 548.728C352.573 550.9 352.645 553.083 352.946 555.24C352.946 560.654 353.548 596.505 356.698 600.575C357.547 602.202 361.121 600.575 362.785 599.548C376.912 590.803 390.225 580.806 402.563 569.679C402.669 569.559 402.748 569.418 402.797 569.266C402.845 569.114 402.862 568.953 402.846 568.794C409.429 559.416 434.096 510.577 440.077 486.087C444.253 468.746 440.112 455.829 423.691 449.352ZM434.804 494.298C418.15 492.164 402.048 486.905 387.346 478.797C395.627 463.119 405.855 445.247 422.736 451.971C441.528 459.439 441.139 474.904 434.804 494.192V494.298ZM375.915 586.312C374.828 585.401 373.64 584.617 372.376 583.977C367.593 581.545 362.068 581.014 356.91 582.49C356.556 578.279 354.539 550.887 354.539 550.639C381.046 560.336 372.871 556.125 399.13 569.183C396.37 571.802 386.001 579.057 375.915 586.242V586.312ZM394.176 483.893C397.628 485.779 401.171 487.492 404.793 489.025C396.681 501.767 389.513 515.085 383.346 528.874C377.401 541.296 377.613 541.225 371.562 554.78C368.023 553.647 364.484 552.585 360.945 551.524C364.767 543.915 391.946 488.282 394.176 483.822V483.893ZM372.942 555.134C384.444 534.501 396.158 508.843 406.208 489.485C409.747 490.971 413.286 492.174 416.826 493.236C414.95 496.775 409.464 506.189 408.013 508.914C406.562 511.639 392.017 540.305 390.991 542.499C389.363 546.038 384.904 555.912 383.523 559.062C379.914 557.469 376.445 556.266 372.8 555.063L372.942 555.134ZM384.797 559.522C386.956 555.594 395.839 539.102 396.936 536.978C398.6 533.687 417.144 495.784 418.17 493.59C421.426 494.51 424.859 495.289 427.053 495.714C420.577 513.409 401.926 547.489 395.202 564.3C389.08 561.433 387.699 560.725 384.656 559.451L384.797 559.522ZM386.956 479.823L393.291 483.362C380.525 505.103 369.405 527.769 360.024 551.17L354.716 549.542C375.278 505.729 376.233 499.996 386.815 479.753L386.956 479.823ZM401.537 567.379L396.193 564.831C401.962 553.506 420.011 524.45 428.257 495.961C430.238 496.315 432.185 496.634 434.061 496.881C424.966 521.148 414.046 544.691 401.395 567.308L401.537 567.379ZM290.66 590.347C292.07 589.179 293.079 587.598 293.542 585.826C294.006 584.054 293.901 582.182 293.243 580.473C292.943 578.007 291.812 575.717 290.037 573.979C288.262 572.242 285.948 571.161 283.476 570.913C281.004 570.666 278.522 571.268 276.438 572.62C274.354 573.971 272.792 575.992 272.009 578.349C267.479 575.412 262.56 572.298 257.853 569.325C261.392 564.618 271.797 566.706 272.858 570.564C272.882 570.714 272.964 570.849 273.087 570.938C273.21 571.028 273.363 571.065 273.513 571.041C273.663 571.018 273.798 570.936 273.888 570.813C273.977 570.69 274.014 570.537 273.991 570.387C273.46 564.229 260.649 560.619 255.482 567.874C250.917 565.078 245.254 561.681 240.512 559.097C244.582 555.558 253.677 557.54 254.668 561.221C254.714 561.347 254.804 561.452 254.921 561.518C255.038 561.584 255.175 561.606 255.307 561.58C255.438 561.555 255.557 561.483 255.641 561.378C255.725 561.274 255.769 561.143 255.765 561.008C255.305 555.275 243.449 551.418 238.07 557.717C235.816 556.454 233.446 555.411 230.992 554.603C230.544 554.417 230.051 554.365 229.574 554.452C229.096 554.54 228.655 554.765 228.302 555.098C219.349 566.246 189.161 595.195 175.217 598.557C174.866 598.61 174.536 598.754 174.259 598.975C173.982 599.197 173.768 599.487 173.639 599.817C173.51 600.147 173.47 600.505 173.523 600.856C173.577 601.206 173.721 601.536 173.943 601.813C177.005 604.921 180.511 607.557 184.348 609.634C180.809 613.173 178.048 616.359 175.996 618.659C174.934 619.791 174.368 641.45 175.288 646.228C175.425 646.696 175.727 647.098 176.137 647.36C180.596 650.404 238.035 675.248 243.909 671.921C247.838 669.691 294.73 620.888 295.473 619.402C296.605 617.066 296.216 601.495 296.145 595.266C295.862 593.39 292.358 591.373 290.66 590.347ZM177.411 637.097V629.205C192.098 636.283 225.719 650.722 238.459 654.757C241.715 655.819 241.998 655.677 243.697 654.757C253.429 648.528 287.793 609.811 294.093 603.901V611.369C274.982 630.515 242.529 664.064 241.927 662.153C238.424 661.941 180.455 638.513 177.411 637.097ZM289.775 578.42C291.047 580.564 291.731 583.006 291.757 585.498C291.745 586.292 291.55 587.071 291.188 587.777C290.826 588.483 290.306 589.096 289.669 589.568C286.696 587.586 281.069 583.906 274.416 579.588C278.061 572.404 286.165 572.298 289.633 578.42H289.775ZM176.526 601.07C191.603 596.611 220.233 569.006 229.859 557.045C232.176 557.689 234.409 558.604 236.513 559.77C232.974 566.352 236.76 573.572 238.105 572.546C238.849 571.979 237.504 571.767 237.291 568.299C237.201 565.765 237.774 563.252 238.955 561.008C243.839 563.556 249.572 566.883 254.42 569.679C251.447 576.297 255.022 582.844 256.26 581.889C257.499 580.933 255.694 581.145 255.482 577.677C255.396 575.403 255.831 573.139 256.756 571.059C261.746 573.997 266.842 577.04 271.514 579.907C270.794 581.67 270.508 583.581 270.68 585.478C270.853 587.374 271.478 589.202 272.505 590.807C272.551 590.867 272.609 590.918 272.675 590.956C272.741 590.994 272.814 591.019 272.89 591.029C272.965 591.038 273.042 591.033 273.116 591.013C273.189 590.994 273.258 590.959 273.319 590.913C273.379 590.867 273.43 590.809 273.468 590.743C273.506 590.677 273.53 590.604 273.54 590.528C273.55 590.452 273.545 590.376 273.525 590.302C273.505 590.228 273.471 590.159 273.425 590.099C272.789 588.693 272.475 587.163 272.505 585.62C272.536 584.077 272.91 582.56 273.602 581.181C281.848 586.206 288.501 590.418 290.554 591.798C290.164 592.152 253.252 624.994 240.689 634.761C232.443 632.603 189.161 611.121 176.526 601.07ZM177.871 620.782C193.903 627.86 230.319 644.281 238.707 645.874C240.158 646.157 240.724 646.263 243.485 644.069C255.27 634.62 293.597 594.523 293.951 594.948C293.968 595.053 293.968 595.161 293.951 595.266V602.344C286.059 608.679 242.175 654.757 241.467 652.563C237.928 652.563 180.419 629.099 177.482 627.79C177.411 626.303 177.73 622.339 177.871 620.782ZM242.317 669.55C238.778 671.567 184.879 649.661 177.659 645.201C177.388 642.947 177.258 640.677 177.27 638.407C192.771 646.051 237.858 665.091 241.998 664.914C248.05 664.595 290.837 616.429 293.88 613.067C293.915 614.875 293.737 616.681 293.349 618.447C292.748 619.614 244.652 668.24 242.317 669.55ZM-50.8907 470.056C-50.6429 473.842 -50.466 477.134 -50.466 480.213C-50.466 480.682 -50.2795 481.132 -49.9477 481.464C-49.6158 481.796 -49.1658 481.982 -48.6965 481.982C-48.2272 481.982 -47.7771 481.796 -47.4452 481.464C-47.1134 481.132 -46.927 480.682 -46.927 480.213C-46.927 476.921 -47.1039 473.665 -47.3516 469.808C-47.3845 469.339 -47.6024 468.902 -47.9575 468.593C-48.3126 468.284 -48.7757 468.129 -49.245 468.162C-49.7143 468.195 -50.1513 468.413 -50.46 468.768C-50.7686 469.123 -50.9235 469.586 -50.8907 470.056ZM488.349 399.098C488.118 399.112 487.892 399.171 487.684 399.273C487.476 399.376 487.291 399.518 487.14 399.693C486.988 399.868 486.873 400.071 486.801 400.291C486.729 400.511 486.702 400.743 486.721 400.974C486.933 404.23 487.146 407.734 487.146 411.131C487.146 411.6 487.332 412.05 487.664 412.382C487.996 412.714 488.446 412.901 488.915 412.901C489.385 412.901 489.835 412.714 490.167 412.382C490.498 412.05 490.685 411.6 490.685 411.131C490.685 407.592 490.472 404.053 490.225 400.726C490.211 400.495 490.152 400.269 490.05 400.061C489.948 399.854 489.805 399.669 489.63 399.517C489.455 399.365 489.252 399.25 489.032 399.178C488.812 399.106 488.58 399.079 488.349 399.098ZM-60.0567 461.243C-59.5874 461.243 -59.1373 461.057 -58.8055 460.725C-58.4736 460.393 -58.2872 459.943 -58.2872 459.474C-58.2872 459.005 -58.4736 458.555 -58.8055 458.223C-59.1373 457.891 -59.5874 457.704 -60.0567 457.704C-64.3389 457.704 -67.9133 458.023 -71.4523 457.952C-71.9249 457.952 -72.3787 458.137 -72.7162 458.468C-73.0537 458.799 -73.248 459.249 -73.2572 459.722C-73.2572 460.191 -73.0708 460.641 -72.739 460.973C-72.4071 461.305 -71.957 461.491 -71.4877 461.491C-67.8425 461.562 -63.8435 461.42 -60.0567 461.243ZM477.378 388.623C473.131 388.623 469.557 388.871 465.982 388.906C465.513 388.906 465.063 389.092 464.731 389.424C464.399 389.756 464.213 390.206 464.213 390.676C464.213 391.145 464.399 391.595 464.731 391.927C465.063 392.259 465.513 392.445 465.982 392.445C469.805 392.445 473.768 392.445 477.59 392.162C478.06 392.134 478.499 391.92 478.811 391.569C479.122 391.217 479.282 390.756 479.254 390.286C479.226 389.817 479.012 389.378 478.66 389.066C478.309 388.754 477.847 388.595 477.378 388.623ZM-51.8462 439.372C-51.6339 442.628 -51.4215 446.132 -51.4215 449.529C-51.4124 449.996 -51.2231 450.441 -50.8932 450.771C-50.5633 451.101 -50.1185 451.29 -49.652 451.299C-49.1827 451.299 -48.7326 451.112 -48.4008 450.781C-48.0689 450.449 -47.8825 449.999 -47.8825 449.529C-47.8825 445.99 -48.0948 442.451 -48.3072 439.125C-48.34 438.655 -48.558 438.218 -48.913 437.91C-49.2681 437.601 -49.7312 437.446 -50.2005 437.479C-50.6699 437.512 -51.1069 437.73 -51.4155 438.085C-51.7241 438.44 -51.879 438.903 -51.8462 439.372ZM489.729 380.448C489.729 376.909 489.517 373.37 489.269 370.043C489.236 369.574 489.018 369.137 488.663 368.828C488.308 368.52 487.845 368.365 487.376 368.397C486.907 368.43 486.469 368.648 486.161 369.003C485.852 369.358 485.697 369.822 485.73 370.291C485.943 373.547 486.155 377.05 486.155 380.448C486.155 380.917 486.341 381.367 486.673 381.699C487.005 382.031 487.455 382.217 487.924 382.217C488.397 382.217 488.851 382.032 489.188 381.701C489.526 381.37 489.72 380.92 489.729 380.448ZM-25.7283 460.783C-25.4958 460.774 -25.2675 460.719 -25.0562 460.622C-24.845 460.525 -24.6551 460.386 -24.4973 460.215C-24.3395 460.045 -24.217 459.844 -24.1368 459.626C-24.0565 459.408 -24.02 459.176 -24.0295 458.943C-24.0653 458.48 -24.2748 458.048 -24.6161 457.732C-24.9575 457.417 -25.4053 457.243 -25.8698 457.244C-30.152 457.421 -33.7264 457.563 -37.3008 457.492C-37.7701 457.492 -38.2202 457.679 -38.5521 458.01C-38.8839 458.342 -39.0703 458.792 -39.0703 459.262C-39.0703 459.731 -38.8839 460.181 -38.5521 460.513C-38.2202 460.845 -37.7701 461.031 -37.3008 461.031C-33.5141 461.102 -29.5504 460.96 -25.7283 460.783ZM511.707 388.163C508.168 388.34 504.239 388.446 500.311 388.446C500.077 388.436 499.844 388.474 499.626 388.557C499.407 388.64 499.207 388.766 499.039 388.928C498.87 389.09 498.736 389.285 498.644 389.5C498.553 389.715 498.506 389.946 498.506 390.18C498.506 390.653 498.691 391.107 499.022 391.444C499.353 391.781 499.803 391.976 500.276 391.985C504.31 391.985 507.566 391.985 511.848 391.702C512.081 391.693 512.309 391.638 512.52 391.54C512.731 391.443 512.921 391.305 513.079 391.134C513.237 390.963 513.359 390.763 513.44 390.544C513.52 390.326 513.556 390.094 513.547 389.862C513.503 389.401 513.291 388.974 512.952 388.66C512.612 388.347 512.169 388.17 511.707 388.163ZM-107.055 355.922C-106.595 356.276 -6.79453 341.483 -2.51233 338.864C-2.27519 338.691 -2.08585 338.461 -1.96205 338.195C-1.83826 337.929 -1.78406 337.635 -1.80452 337.343C-1.80452 332.777 -7.78545 289.92 -10.6521 279.232C-11.006 277.923 -11.3599 276.613 -12.1738 276.153C-17.5885 272.897 -113 290.875 -118.698 294.556C-118.853 294.647 -118.986 294.77 -119.09 294.916C-119.193 295.063 -119.265 295.229 -119.3 295.405C-120.503 299.688 -110.134 353.799 -107.055 355.922ZM-117.141 296.255C-110.346 293.176 -23.7464 277.321 -13.8372 278.56C-11.4306 284.753 -4.98963 330.123 -4.56495 336.776C-9.48418 338.227 -105.71 354.755 -106.064 354.825C-106.418 354.896 -106.453 355.321 -107.196 353.091C-110.311 343.748 -117.318 304.253 -117.141 296.255Z" fill="#FEFFDF"/>
<path d="M5.27341 342.014C5.46597 341.657 5.55196 341.251 5.52115 340.846C5.52115 335.219 -2.54781 272.756 -5.41441 267.766C-5.63914 267.398 -5.95724 267.096 -6.33642 266.891C-6.71559 266.686 -7.14232 266.585 -7.57322 266.598C-19.4289 265.147 -119.441 284.682 -126.024 289.247C-126.944 289.884 -126.803 291.477 -126.696 293.176C-126.13 302.483 -116.079 363.708 -112.54 363.354C-112.151 363.354 -112.293 363.071 -113.213 364.947C-118.734 376.307 -129.209 412.688 -128.997 420.014C-128.997 423.093 -128.289 427.092 -125.245 426.88C-103.41 424.19 3.64546 407.203 34.4349 400.868C35.6382 400.62 36.4167 399.523 36.3814 397.718C36.0181 394.711 35.1064 391.797 33.6917 389.118C29.3741 381.014 11.4667 348.915 5.27341 342.014ZM-112.328 362.257C-115.088 358.718 -125.245 297.741 -124.467 290.982C-116.681 286.947 -18.0133 267.872 -7.67938 269.429C-4.84817 277.215 2.47758 333.45 2.93767 340.209C-9.59045 344.527 -96.3317 358.541 -112.328 362.257ZM-110.771 363.319C-107.798 362.576 -6.54691 345.624 2.72531 343.182C7.7861 347.889 30.6481 388.552 32.1345 392.02C11.8206 395.559 -108.683 415.696 -126.413 418.386C-126.166 407.663 -115.159 370.185 -110.771 363.319Z" fill="#FEFFDF"/>
<path d="M-97.4642 400.019C-94.3853 399.558 -29.055 391.702 -5.44981 385.296C-5.30432 385.259 -5.17971 385.165 -5.10339 385.035C-5.02706 384.906 -5.00528 384.752 -5.04282 384.606C-5.08037 384.461 -5.17416 384.336 -5.30358 384.26C-5.433 384.183 -5.58745 384.162 -5.73293 384.199C-10.369 385.155 -66.9225 392.693 -97.535 398.921C-97.6196 398.906 -97.7065 398.91 -97.7892 398.934C-97.8719 398.957 -97.9481 398.999 -98.0123 399.056C-98.0764 399.114 -98.1266 399.185 -98.1592 399.264C-98.1918 399.344 -98.2058 399.429 -98.2003 399.515C-98.1948 399.601 -98.1698 399.684 -98.1273 399.759C-98.0847 399.834 -98.0258 399.898 -97.9548 399.946C-97.8839 399.995 -97.8029 400.026 -97.7179 400.039C-97.6329 400.051 -97.5461 400.045 -97.4642 400.019ZM-49.7229 153.774C-51.0449 156.76 -52.1565 159.834 -53.0496 162.975C-53.1022 163.479 -52.9632 163.985 -52.6603 164.391C-49.0859 169.77 -12.4571 211.071 -2.90172 216.875C-1.59229 217.689 -0.0351105 218.255 0.920418 217.087C7.86173 208.45 16.9205 201.756 27.2153 197.658C35.5944 194.693 44.3793 193.034 53.2625 192.738C60.3405 192.101 61.5791 191.394 64.3042 186.758C67.5187 180.656 71.7836 175.169 76.9031 170.549C83.4308 164.841 90.6764 160.011 98.4557 156.18C98.8059 155.982 99.0797 155.672 99.2335 155.3C99.3874 154.928 99.4126 154.516 99.305 154.128C98.1087 151.084 96.5268 148.205 94.5981 145.563C95.8722 145.139 97.2878 144.749 97.2878 143.475C97.2878 139.936 66.4276 95.274 57.8632 86.8511C56.9784 85.9664 55.7044 84.7985 54.5365 84.8693C36.8414 85.8602 19.6064 102.564 9.6264 117.145C-1.80463 116.72 -9.20116 115.694 -22.2247 121.18C-31.4188 125.082 -39.708 130.841 -46.5732 138.096C-47.6349 139.193 -54.8545 146.837 -54.9606 147.439C-55.0668 148.041 -54.8545 148.041 -49.7229 153.774ZM91.8377 152.783C77.08 155.296 67.6662 167.576 60.7298 180.918C57.6508 186.864 57.9339 187.147 54.6781 187.076C48.9846 186.754 43.2735 186.967 37.62 187.713C33.4733 188.333 29.3963 189.352 25.4458 190.757C16.4567 193.942 6.15816 204.134 0.672691 211.708C0.556168 211.863 0.40802 211.993 0.237984 212.087C0.0679398 212.182 -0.120155 212.239 -0.313972 212.256C-0.507797 212.273 -0.702965 212.248 -0.886673 212.184C-1.07037 212.12 -1.23847 212.018 -1.37994 211.885C-12.8817 200.029 -33.2311 179.219 -43.4588 167.258C-43.9543 166.727 -43.1049 165.948 -42.6095 166.514C-35.9915 173.592 -18.8981 190.544 -0.565971 208.983C5.6273 201.091 15.1826 191.535 24.6318 188.209C29.7845 186.371 35.1461 185.182 40.5928 184.669C45.6934 184.282 50.8161 184.282 55.9167 184.669C58.0047 182.263 68.3387 154.942 91.7669 151.898C91.8355 151.949 91.8919 152.014 91.9318 152.089C91.9718 152.164 91.9943 152.247 91.9977 152.332C92.0011 152.417 91.9853 152.502 91.9515 152.58C91.9176 152.658 91.8667 152.727 91.8023 152.783H91.8377ZM54.5011 87.7359C61.5791 92.6905 90.3867 135.336 94.1381 142.803C87.6287 144.865 81.3445 147.581 75.3813 150.907C69.7343 153.738 64.79 157.793 60.9085 162.777C57.0269 167.76 54.306 173.547 52.9439 179.715C40.2389 159.047 22.5084 136.291 10.7235 119.552C11.4313 119.092 31.3206 89.1161 54.5011 87.7359ZM-21.4462 123.126C-8.52875 117.924 -1.37994 119.127 9.30788 119.587C19.9249 137.707 39.0002 163.258 51.5637 179.998C39.968 177.254 27.7658 178.932 17.3414 184.705C11.0774 188.244 3.43311 196.738 -1.27378 202.011C-8.06869 196.561 -47.281 154.8 -53.5804 147.722C-43.8835 136.751 -34.9298 128.505 -21.4462 122.984V123.126ZM-86.2101 213.123C-87.0848 212.509 -88.1189 212.163 -89.1868 212.125C-90.2547 212.087 -91.3107 212.36 -92.2265 212.911C-92.8934 213.208 -93.4952 213.634 -93.9975 214.164C-94.4998 214.694 -94.8928 215.318 -95.1541 216C-95.4154 216.682 -95.5397 217.408 -95.5202 218.138C-95.5006 218.868 -95.3374 219.587 -95.04 220.254C-94.7425 220.921 -94.3166 221.523 -93.7866 222.025C-93.2566 222.528 -92.6328 222.921 -91.9509 223.182C-91.269 223.443 -90.5424 223.568 -89.8124 223.548C-89.0824 223.528 -88.3634 223.365 -87.6965 223.068C-86.6311 222.835 -85.6617 222.284 -84.9168 221.487C-84.1718 220.691 -83.6866 219.686 -83.5254 218.608C-83.3642 217.529 -83.5346 216.427 -84.0141 215.448C-84.4935 214.468 -85.2594 213.657 -86.2101 213.123ZM-88.5459 220.201C-91.0232 220.98 -92.5096 220.201 -93.1112 218.998C-94.2437 216.485 -92.8281 212.628 -89.1475 213.76C-86.564 214.716 -84.476 219.069 -88.5459 220.378V220.201ZM93.7488 51.1779C94.7751 53.2659 99.5527 52.4873 101.641 51.8149C102.738 51.461 103.446 51.0717 103.552 50.01C103.87 47.3557 104.224 24.3521 103.021 22.1225C102.897 21.8887 102.706 21.6969 102.473 21.571C102.24 21.445 101.975 21.3907 101.712 21.4147C97.9356 21.4043 94.1789 21.9529 90.5637 23.0427C89.1127 23.9274 92.4747 48.8421 93.7488 51.1779ZM91.3069 23.892C94.576 23.4244 97.8823 23.2703 101.181 23.432C101.393 26.0508 100.827 48.7359 100.791 49.0898C99.2962 49.6256 97.6998 49.8191 96.1199 49.6561C95.8722 48.8421 95.4475 46.6479 94.9167 43.8875C93.3572 37.2916 92.1522 30.6169 91.3069 23.892ZM-89.643 183.254C-89.3034 183.428 -88.9274 183.519 -88.5459 183.519C-88.1644 183.519 -87.7883 183.428 -87.4488 183.254C-86.0815 182.411 -84.9971 181.178 -84.3344 179.715C-84.2444 179.481 -84.2167 179.227 -84.2539 178.979C-84.2911 178.731 -84.392 178.497 -84.5468 178.299C-86.2455 176.282 -104.79 154.8 -107.055 156.145C-109.836 157.945 -112.474 159.957 -114.947 162.161C-115.047 162.25 -115.126 162.36 -115.181 162.481C-115.236 162.603 -115.265 162.735 -115.265 162.869C-115.336 164.709 -94.7392 181.201 -89.643 183.254ZM-106.63 157.065C-104.047 158.941 -95.3408 169.699 -87.2718 179.219C-87.619 179.766 -88.0488 180.256 -88.5459 180.67C-97.0294 175.241 -105.129 169.234 -112.788 162.692C-110.868 160.676 -108.811 158.796 -106.63 157.065ZM-51.0323 78.9945C-50.2537 65.2631 -42.2556 58.8929 -33.9035 57.265C-36.2746 65.9709 -35.8853 77.2958 -27.2855 78.7468C-23.1803 79.4192 -21.163 77.2958 -18.1903 74.8185C-5.4852 64.2014 -15.7483 53.5844 -30.0814 54.3276C-24.7374 39.6761 -12.3863 27.7496 3.99936 27.3603C4.14954 27.3603 4.29356 27.3006 4.39975 27.1944C4.50594 27.0882 4.56561 26.9442 4.56561 26.794C4.56561 26.6439 4.50594 26.4998 4.39975 26.3936C4.29356 26.2875 4.14954 26.2278 3.99936 26.2278C-13.6957 25.8739 -27.604 38.6144 -33.0895 54.5399C-42.5387 56.1679 -51.9171 63.2459 -52.1648 78.7822C-52.1788 78.8565 -52.1779 78.9329 -52.1623 79.0069C-52.1468 79.081 -52.1168 79.1512 -52.074 79.2137C-52.0313 79.2761 -51.9767 79.3295 -51.9133 79.3709C-51.85 79.4122 -51.7791 79.4406 -51.7047 79.4546C-51.6304 79.4685 -51.554 79.4677 -51.48 79.4521C-51.4059 79.4365 -51.3357 79.4065 -51.2732 79.3638C-51.2108 79.3211 -51.1574 79.2665 -51.1161 79.2031C-51.0747 79.1398 -51.0463 79.0689 -51.0323 78.9945ZM-30.8953 56.8403C-25.6222 56.4864 -17.7656 58.1143 -15.6068 62.892C-14.3681 65.617 -15.6068 68.9791 -19.9952 72.6597C-21.1866 73.8532 -22.5457 74.8666 -24.0296 75.6678C-29.3382 77.9328 -35.2129 71.3856 -30.8953 56.8403ZM-20.7737 557.363C-24.1929 556.447 -27.7607 556.225 -31.2673 556.708C-34.7738 557.192 -38.1481 558.372 -41.1918 560.179C-44.2355 561.986 -46.887 564.384 -48.9902 567.231C-51.0935 570.078 -52.606 573.317 -53.4389 576.757C-55.011 583.904 -53.6795 591.384 -49.7371 597.549C-45.7948 603.715 -39.5646 608.062 -32.4171 609.634C-25.2696 611.207 -17.7904 609.875 -11.6246 605.933C-5.45892 601.99 -1.11182 595.76 0.460342 588.613C1.13191 585.165 1.11451 581.619 0.409126 578.179C-0.296257 574.738 -1.67565 571.471 -3.64956 568.566C-5.62346 565.661 -8.15284 563.176 -11.0919 561.253C-14.0309 559.33 -17.3214 558.008 -20.7737 557.363ZM-9.83819 586.206C-11.2582 591.87 -14.6576 596.838 -19.4219 600.213C-24.1861 603.588 -30.0008 605.148 -35.8146 604.609C-41.1514 602.524 -45.5819 598.623 -48.3266 593.594C-51.0712 588.564 -51.9541 582.727 -50.82 577.111C-49.4957 571.31 -46.1279 566.18 -41.3322 562.658C-36.5365 559.135 -30.6334 557.457 -24.7021 557.929C-19.3125 560.156 -14.8812 564.213 -12.1882 569.385C-9.49519 574.557 -8.71317 580.514 -9.97975 586.206H-9.83819Z" fill="#FEFFDF"/>
<path d="M26.3659 567.449C23.2849 566.386 19.983 566.131 16.7751 566.706C15.4455 563.658 13.8092 560.753 11.8913 558.036C14.1916 555.948 20.4911 550.144 18.9693 547.419C13.5535 540.94 7.12347 535.383 -0.0705948 530.962C-3.07462 529.279 -6.38249 528.209 -9.80289 527.812C-12.0679 528.131 -17.4472 536.943 -18.6504 538.925C-19.429 538.925 -22.1894 538.04 -22.4018 537.934C-22.4018 535.386 -23.145 526.184 -25.4453 525.123C-28.0177 524.176 -30.6889 523.523 -33.4081 523.176C-35.9208 522.787 -58.5351 526.928 -60.1985 529.971C-61.2955 532.024 -58.7475 539.774 -58.0043 541.933C-59.9129 542.984 -61.7459 544.166 -63.4897 545.472C-67.0287 547.985 -66.0732 547.879 -66.7102 547.595C-67.4802 547.228 -68.305 546.989 -69.1522 546.888C-71.9792 545.23 -75.2938 544.605 -78.5306 545.118C-81.7864 546.18 -89.4661 563.663 -90.7048 568.157C-91.1101 569.291 -91.2198 570.509 -91.0233 571.696C-90.1739 574.032 -84.5115 575.908 -82.1403 576.651C-82.7952 581.205 -82.7952 585.829 -82.1403 590.382C-85.2547 591.232 -91.7311 593.143 -91.3772 596.328C-91.0233 599.513 -82.742 620.535 -79.3091 622.198C-77.4286 623.25 -75.3491 623.897 -73.2038 624.098C-71.0586 624.299 -68.895 624.05 -66.8518 623.366C-65.7011 622.791 -64.5897 622.141 -63.5251 621.419C-62.1095 622.481 -60.6231 623.437 -59.1014 624.357C-60.1985 627.082 -62.6404 633.169 -61.8618 635.929C-61.4725 637.38 -60.3046 637.84 -58.6767 638.442C-54.1821 640.07 -29.9753 645.874 -26.2947 645.237C-24.9145 645.025 -24.1713 643.574 -23.7466 642.193C-22.9603 639.052 -22.4978 635.838 -22.3664 632.603C-20.5489 632.423 -18.7416 632.152 -16.9517 631.789C-15.8586 633.712 -14.4601 635.445 -12.811 636.92C-11.0061 638.194 -9.48437 637.557 -7.43174 636.248C-6.44082 637.522 -4.95444 639.291 -3.36188 639.468C0.637207 639.928 17.1644 624.357 18.8631 621.172C20.2787 618.517 15.1118 613.775 12.8114 611.687C15.2999 607.942 17.2534 603.869 18.6154 599.584C21.1679 599.968 23.7511 600.111 26.3305 600.008C27.4983 600.008 28.8432 599.584 29.3386 598.487C31.4974 593.567 30.8604 574.917 29.3386 570.174C29.1263 568.794 27.5337 567.874 26.3659 567.449ZM27.2152 570.705C28.4185 575.306 28.8078 592.683 27.0383 597.177C23.9784 597.479 20.891 597.336 17.8722 596.752C17.5499 596.697 17.2186 596.765 16.9436 596.942C16.6685 597.119 16.4695 597.392 16.3858 597.708C14.9765 602.493 12.7883 607.012 9.90942 611.085C9.70436 611.355 9.61192 611.694 9.65152 612.031C9.69112 612.367 9.85968 612.676 10.1218 612.89C12.6048 614.858 14.7145 617.255 16.3504 619.968C14.5809 622.87 0.743385 635.54 -3.07875 636.602C-3.645 636.602 -5.20216 634.478 -5.59145 633.912C-6.89872 631.948 -8.08074 629.903 -9.13046 627.79C-9.2837 627.482 -9.54646 627.242 -9.86726 627.117C-10.188 626.993 -10.5437 626.993 -10.8646 627.117C-21.1277 630.975 -25.0206 628.71 -25.0206 631.258C-25.016 635.073 -25.6377 638.863 -26.8609 642.477C-35.1778 641.572 -43.368 639.744 -51.2801 637.026C-50.898 633.248 -49.8433 629.569 -48.1658 626.162C-47.1041 623.791 -51.3509 624.463 -59.2783 616.394C-59.5334 616.158 -59.8684 616.026 -60.2161 616.026C-60.5639 616.026 -60.8988 616.158 -61.154 616.394C-64.693 619.296 -69.2937 622.127 -70.2139 621.667C-72.0188 620.782 -80.3354 601.919 -80.8309 598.097C-78.3138 596.343 -75.4562 595.138 -72.4434 594.558C-72.1221 594.467 -71.8447 594.263 -71.6625 593.983C-71.4803 593.703 -71.4057 593.367 -71.4525 593.036C-72.3198 588.025 -72.3198 582.901 -71.4525 577.89C-71.3984 577.581 -71.4633 577.263 -71.634 577.001C-71.8048 576.738 -72.0687 576.55 -72.3727 576.474C-75.0406 575.775 -77.6092 574.74 -80.0169 573.395C-80.7955 572.829 -80.7247 572.864 -80.654 572.262C-78.3633 564.001 -74.6898 556.187 -69.7892 549.153C-67.8781 548.622 -62.7112 552.409 -60.9416 553.753C-60.7567 553.933 -60.5092 554.033 -60.2515 554.033C-59.9939 554.033 -59.7463 553.933 -59.5614 553.753C-57.9353 552.067 -56.1844 550.505 -54.3237 549.082C-48.9444 545.012 -47.4934 545.543 -47.9535 544.127C-49.5804 540.576 -50.4942 536.741 -50.6431 532.838C-50.0946 532.382 -49.4722 532.023 -48.8028 531.776C-45.4988 530.47 -42.1042 529.405 -38.6458 528.591C-34.4539 527.423 -30.1454 526.722 -25.7992 526.503C-25.056 526.822 -24.3836 530.042 -24.2067 531.033C-22.8972 538.111 -23.782 539.562 -22.7557 539.668C-12.6695 540.659 -10.6169 543.455 -9.90905 542.216C-7.94658 538.785 -5.65932 535.549 -3.07875 532.555C-2.33556 531.811 -2.37094 531.458 -0.141365 532.732C6.51943 537.084 12.485 542.418 17.5537 548.551C18.0846 549.471 13.4838 554.355 10.1218 557.222C8.9539 558.248 10.6172 558.708 13.6608 564.512C16.7043 570.316 15.9965 571.944 17.6245 571.59C20.7628 570.839 23.9925 570.541 27.2152 570.705ZM518.395 274.985C510.976 271.955 503.197 269.897 495.25 268.863C489.446 267.943 482.616 267.022 476.847 266.279C482.403 258.423 498.86 238.533 501.62 233.685C502.399 232.375 500.912 230.535 499.815 229.438C493.657 222.855 481.766 220.378 472.636 218.963C467.398 218.113 445.527 215.424 441.811 217.193C437.352 219.316 404.368 268.863 403.377 276.401C403.377 277.675 403.802 278.17 405.04 278.63C410.243 280.541 433.706 283.514 438.944 284.753C431.866 297.139 400.404 339.006 397.325 344.916C396.582 346.402 397.042 347.287 397.927 347.57C401.112 348.835 404.389 349.852 407.73 350.614C409.004 351.003 411.8 349.269 415.87 346.792C434.131 335.821 512.485 284.08 518.501 277.392C518.667 277.235 518.798 277.044 518.883 276.832C518.969 276.62 519.008 276.392 518.998 276.164C518.988 275.936 518.929 275.712 518.825 275.509C518.721 275.306 518.574 275.127 518.395 274.985ZM442.342 317.453C412.26 337.307 402.103 343.111 401.749 343.359C406.598 335.962 436.715 294.697 441.882 284.824C441.972 284.633 442.018 284.425 442.017 284.214C442.016 284.003 441.968 283.795 441.876 283.605C441.785 283.415 441.652 283.248 441.488 283.116C441.323 282.984 441.131 282.89 440.926 282.842C437.387 281.568 411.623 278.807 405.536 276.648C406.315 270.066 438.449 220.307 442.342 218.326C446.235 216.344 483.996 220.838 491.074 225.899C487.358 233.154 466.832 258.564 463.505 264.474C462.833 265.678 462.62 266.845 463.93 267.164C465.239 267.482 498.506 271.375 505.761 273.747C496.913 281.143 452.251 310.8 442.342 317.312V317.453ZM215.314 101.078C215.314 101.396 215.526 101.786 216.057 103.838C216.196 104.284 216.503 104.658 216.912 104.882C217.321 105.106 217.801 105.164 218.251 105.042C218.702 104.91 219.082 104.605 219.307 104.194C219.533 103.782 219.586 103.298 219.455 102.847C219.101 101.467 218.782 100.299 218.57 99.7331C218.364 99.3445 218.02 99.0466 217.606 98.8976C217.192 98.7485 216.738 98.759 216.331 98.9269C215.924 99.0949 215.595 99.4083 215.407 99.8059C215.219 100.204 215.186 100.657 215.314 101.078Z" fill="#FEFFDF"/>
</svg>
