<svg width="212" height="212" viewBox="0 0 212 212" fill="none" xmlns="http://www.w3.org/2000/svg">
<g filter="url(#filter0_d_156_1585)">
<circle cx="104" cy="100" r="100" fill="#F05A5B"/>
<circle cx="104" cy="100" r="97.5" stroke="white" stroke-width="5"/>
</g>
<g filter="url(#filter1_d_156_1585)">
<circle cx="104" cy="99.9998" r="83.3333" fill="#FEE799"/>
</g>
<path fill-rule="evenodd" clip-rule="evenodd" d="M111.045 153.456C111.4 157.901 111.742 162.168 111.785 165.016C115.246 166.477 123.447 170.33 128.012 174.674C119.687 175.511 81.0256 174.558 76.5622 173.808C82.2809 170.368 88.8059 167.233 95.1018 165.082C94.9988 159.948 95.3128 155.108 95.6459 149.975C95.9091 145.918 96.1842 141.677 96.2749 136.961C95.6451 136.843 94.6049 136.572 93.5756 136.304C92.6125 136.053 91.6588 135.805 91.0597 135.686C83.5829 134.207 78.1351 130.063 74.1988 124.681C68.8444 127.036 62.1591 124.209 57.76 121.184C48.526 114.836 36.2388 102.107 42.2669 89.8703C45.8647 82.5675 57.7009 80.2636 64.9599 79.9398C65.3629 76.5375 66.2703 73.2277 68.3815 71.0201C72.2092 67.0174 78.7922 65.3391 84.0567 64.5763C95.7611 62.8803 107.738 62.7243 119.357 65.4322C119.638 65.4971 119.935 65.5652 120.248 65.6366C125.473 66.8308 134.83 68.9698 140.566 73.52C141.87 74.6479 142.915 75.9426 143.583 77.4375C144.18 78.7745 144.526 81.3497 144.538 84.7059C145.478 84.9619 146.497 85.2158 147.565 85.4821C154.552 87.2231 163.664 89.4935 166.538 96.3195C169.267 102.802 165.807 108.943 162.015 114.052C154.928 123.604 141.597 135.865 128.561 129.354C126.265 131.517 123.679 133.294 120.778 134.541C117.872 135.79 114.137 136.809 110.236 137.309C110.037 140.861 110.554 147.328 111.045 153.456ZM52.0749 89.0039C41.9185 92.5582 48.8333 107.413 54.6179 111.992C56.3765 113.384 58.2467 114.644 60.1493 115.828C62.3755 117.213 67.3627 119.072 70.0719 118.044C68.7706 115.09 67.7801 111.819 66.8491 108.568C64.9199 101.833 64.0457 94.3644 63.7723 87.3439C59.8289 87.1705 55.822 87.6924 52.0749 89.0039ZM159.829 103.923C155.498 114.598 145.366 124.86 132.951 123.639C138.395 114.055 143.813 102.552 145.087 91.5275C145.418 91.5988 145.753 91.6644 146.089 91.7303C146.886 91.8868 147.688 92.0441 148.461 92.279C153.444 93.7958 162.74 96.7471 159.829 103.923Z" fill="#FFA952" stroke="black" stroke-width="2.14794" stroke-miterlimit="1.5" stroke-linecap="round" stroke-linejoin="round"/>
<path d="M120.204 119.882C108.175 117.621 96.1688 117.229 86.4789 118.55C82.4515 119.099 78.22 119.412 74.4458 121.08" stroke="black" stroke-width="2.14794" stroke-miterlimit="1.5" stroke-linecap="round" stroke-linejoin="round"/>
<path d="M131.858 112.56C128.414 111.5 125.021 110.424 121.479 109.728C107.476 106.977 93.6302 106.706 79.6094 108.916" stroke="black" stroke-width="2.14794" stroke-miterlimit="1.5" stroke-linecap="round" stroke-linejoin="round"/>
<path fill-rule="evenodd" clip-rule="evenodd" d="M61.6679 38.6343C61.2607 42.1479 60.7664 45.7947 60.6963 49.3249L61.6679 38.6343Z" fill="white"/>
<path d="M61.6679 38.6343C61.2607 42.1479 60.7664 45.7947 60.6963 49.3249" stroke="black" stroke-width="2.14794" stroke-miterlimit="1.5" stroke-linecap="round" stroke-linejoin="round"/>
<path fill-rule="evenodd" clip-rule="evenodd" d="M51.3916 51.6404C53.3923 51.5027 55.4016 51.5321 57.4047 51.5996L51.3916 51.6404Z" fill="white"/>
<path d="M51.3916 51.6404C53.3923 51.5027 55.4016 51.5321 57.4047 51.5996" stroke="black" stroke-width="2.14794" stroke-miterlimit="1.5" stroke-linecap="round" stroke-linejoin="round"/>
<path fill-rule="evenodd" clip-rule="evenodd" d="M63.9312 51.46C66.2205 51.8489 68.4327 51.7439 70.7359 51.781L63.9312 51.46Z" fill="white"/>
<path d="M63.9312 51.46C66.2205 51.8489 68.4327 51.7439 70.7359 51.781" stroke="black" stroke-width="2.14794" stroke-miterlimit="1.5" stroke-linecap="round" stroke-linejoin="round"/>
<path fill-rule="evenodd" clip-rule="evenodd" d="M60.4152 62.7732C60.0133 60.533 59.6084 57.349 60.1925 55.0791L60.4152 62.7732Z" fill="white"/>
<path d="M60.4152 62.7732C60.0133 60.533 59.6084 57.349 60.1925 55.0791" stroke="black" stroke-width="2.14794" stroke-miterlimit="1.5" stroke-linecap="round" stroke-linejoin="round"/>
<path fill-rule="evenodd" clip-rule="evenodd" d="M137.72 140.104C137.37 141.978 137.21 143.882 137.036 145.78L137.72 140.104Z" fill="white"/>
<path d="M137.72 140.104C137.37 141.978 137.21 143.882 137.036 145.78" stroke="black" stroke-width="2.14794" stroke-miterlimit="1.5" stroke-linecap="round" stroke-linejoin="round"/>
<path fill-rule="evenodd" clip-rule="evenodd" d="M131.006 148.207C131.938 148.105 132.865 148.004 133.8 147.937L131.006 148.207Z" fill="white"/>
<path d="M131.006 148.207C131.938 148.105 132.865 148.004 133.8 147.937" stroke="black" stroke-width="2.14794" stroke-miterlimit="1.5" stroke-linecap="round" stroke-linejoin="round"/>
<path fill-rule="evenodd" clip-rule="evenodd" d="M136.692 150.556C136.584 152.596 136.642 154.633 136.578 156.672L136.692 150.556Z" fill="white"/>
<path d="M136.692 150.556C136.584 152.596 136.642 154.633 136.578 156.672" stroke="black" stroke-width="2.14794" stroke-miterlimit="1.5" stroke-linecap="round" stroke-linejoin="round"/>
<path fill-rule="evenodd" clip-rule="evenodd" d="M139.083 148.732C140.519 148.643 141.961 148.535 143.399 148.524L139.083 148.732Z" fill="white"/>
<path d="M139.083 148.732C140.519 148.643 141.961 148.535 143.399 148.524" stroke="black" stroke-width="2.14794" stroke-miterlimit="1.5" stroke-linecap="round" stroke-linejoin="round"/>
<path fill-rule="evenodd" clip-rule="evenodd" d="M138.214 49.7071C137.534 44.0992 137.415 39.8239 132.006 36.9016C136.731 35.6233 139.985 29.5955 140.755 25C141.6 29.385 142.29 34.5062 145.782 37.665C141.356 39.4701 138.741 44.5853 138.215 49.1257" fill="white"/>
<path d="M138.214 49.7071C137.534 44.0992 137.415 39.8239 132.006 36.9016C136.731 35.6233 139.985 29.5955 140.755 25C141.6 29.385 142.29 34.5062 145.782 37.665C141.356 39.4701 138.741 44.5853 138.215 49.1257" stroke="black" stroke-width="2.14794" stroke-miterlimit="1.5" stroke-linecap="round" stroke-linejoin="round"/>
<path fill-rule="evenodd" clip-rule="evenodd" d="M73.7137 152.118C73.4611 149.806 72.8603 147.078 70.3862 146.284C72.6251 145.375 73.7606 142.919 74.0423 140.624C74.1057 142.576 74.5776 145.186 76.6121 145.971C74.3347 146.893 74.2389 149.986 73.7137 152.118Z" fill="white" stroke="black" stroke-width="2.14794" stroke-miterlimit="1.5" stroke-linecap="round" stroke-linejoin="round"/>
<defs>
<filter id="filter0_d_156_1585" x="0" y="0" width="212" height="212" filterUnits="userSpaceOnUse" color-interpolation-filters="sRGB">
<feFlood flood-opacity="0" result="BackgroundImageFix"/>
<feColorMatrix in="SourceAlpha" type="matrix" values="0 0 0 0 0 0 0 0 0 0 0 0 0 0 0 0 0 0 127 0" result="hardAlpha"/>
<feMorphology radius="2" operator="dilate" in="SourceAlpha" result="effect1_dropShadow_156_1585"/>
<feOffset dx="2" dy="6"/>
<feGaussianBlur stdDeviation="2"/>
<feComposite in2="hardAlpha" operator="out"/>
<feColorMatrix type="matrix" values="0 0 0 0 0 0 0 0 0 0 0 0 0 0 0 0 0 0 0.5 0"/>
<feBlend mode="normal" in2="BackgroundImageFix" result="effect1_dropShadow_156_1585"/>
<feBlend mode="normal" in="SourceGraphic" in2="effect1_dropShadow_156_1585" result="shape"/>
</filter>
<filter id="filter1_d_156_1585" x="16.6665" y="16.6665" width="174.667" height="174.667" filterUnits="userSpaceOnUse" color-interpolation-filters="sRGB">
<feFlood flood-opacity="0" result="BackgroundImageFix"/>
<feColorMatrix in="SourceAlpha" type="matrix" values="0 0 0 0 0 0 0 0 0 0 0 0 0 0 0 0 0 0 127 0" result="hardAlpha"/>
<feOffset dy="4"/>
<feGaussianBlur stdDeviation="2"/>
<feComposite in2="hardAlpha" operator="out"/>
<feColorMatrix type="matrix" values="0 0 0 0 0 0 0 0 0 0 0 0 0 0 0 0 0 0 0.25 0"/>
<feBlend mode="normal" in2="BackgroundImageFix" result="effect1_dropShadow_156_1585"/>
<feBlend mode="normal" in="SourceGraphic" in2="effect1_dropShadow_156_1585" result="shape"/>
</filter>
</defs>
</svg>
